HIERARCHY
ROOT Hips
{
	OFFSET 56.877701 -32.693596 43.373703
	CHANNELS 6 Xposition Yposition Zposition Zrotation Xrotation Yrotation
	JOINT Chest
	{
		OFFSET -0.779999 1.005800 5.403099
		CHANNELS 6 Xposition Yposition Zposition Zrotation Xrotation Yrotation
		JOINT Chest2
		{
			OFFSET 0.000000 0.000000 4.236801
			CHANNELS 6 Xposition Yposition Zposition Zrotation Xrotation Yrotation
			JOINT Neck
			{
				OFFSET 0.000000 0.000000 9.874401
				CHANNELS 6 Xposition Yposition Zposition Zrotation Xrotation Yrotation
				JOINT Head
				{
					OFFSET 0.000000 0.000002 2.173893
					CHANNELS 6 Xposition Yposition Zposition Zrotation Xrotation Yrotation
					End Site
					{
						OFFSET 0.000000 0.000000 6.508102
					}
				}
			}
			JOINT LeftCollar
			{
				OFFSET 2.681599 -0.377600 5.432499
				CHANNELS 6 Xposition Yposition Zposition Zrotation Xrotation Yrotation
				JOINT LeftShoulder
				{
					OFFSET 5.161499 0.000000 0.000000
					CHANNELS 6 Xposition Yposition Zposition Zrotation Xrotation Yrotation
					JOINT LeftElbow
					{
						OFFSET 0.000000 0.000000 -10.869099
						CHANNELS 6 Xposition Yposition Zposition Zrotation Xrotation Yrotation
						JOINT LeftWrist
						{
							OFFSET 0.000000 0.000000 -13.344799
							CHANNELS 6 Xposition Yposition Zposition Zrotation Xrotation Yrotation
							End Site
							{
								OFFSET 0.000000 0.000000 -2.173901
							}
						}
					}
				}
			}
			JOINT RightCollar
			{
				OFFSET -2.381901 -1.419600 6.136600
				CHANNELS 6 Xposition Yposition Zposition Zrotation Xrotation Yrotation
				JOINT RightShoulder
				{
					OFFSET -4.550499 0.000000 0.000000
					CHANNELS 6 Xposition Yposition Zposition Zrotation Xrotation Yrotation
					JOINT RightElbow
					{
						OFFSET 0.000000 0.000000 -11.106499
						CHANNELS 6 Xposition Yposition Zposition Zrotation Xrotation Yrotation
						JOINT RightWrist
						{
							OFFSET 0.000000 0.000000 -12.874298
							CHANNELS 6 Xposition Yposition Zposition Zrotation Xrotation Yrotation
							End Site
							{
								OFFSET 0.000000 0.000000 -2.173901
							}
						}
					}
				}
			}
		}
	}
	JOINT LeftHip
	{
		OFFSET 2.431900 0.469601 -2.489399
		CHANNELS 6 Xposition Yposition Zposition Zrotation Xrotation Yrotation
		JOINT LeftKnee
		{
			OFFSET 0.000000 -0.000004 -18.200201
			CHANNELS 6 Xposition Yposition Zposition Zrotation Xrotation Yrotation
			JOINT LeftAnkle
			{
				OFFSET 0.000000 0.000000 -16.279900
				CHANNELS 6 Xposition Yposition Zposition Zrotation Xrotation Yrotation
				End Site
				{
					OFFSET 0.000000 -8.394100 0.000000
				}
			}
		}
	}
	JOINT RightHip
	{
		OFFSET -1.987999 -0.073502 -2.713001
		CHANNELS 6 Xposition Yposition Zposition Zrotation Xrotation Yrotation
		JOINT RightKnee
		{
			OFFSET 0.000000 -0.000004 -19.547802
			CHANNELS 6 Xposition Yposition Zposition Zrotation Xrotation Yrotation
			JOINT RightAnkle
			{
				OFFSET 0.000000 0.000000 -14.881199
				CHANNELS 6 Xposition Yposition Zposition Zrotation Xrotation Yrotation
				End Site
				{
					OFFSET 0.000000 -7.922699 0.000000
				}
			}
		}
	}
}
MOTION
Frames: 4
Frame Time: 0.041667
38.527306 -55.196590 41.174500 4251.881278 29.197518 -0.857247 -0.780000 1.005799 5.403093 -27.498707 -15.892870 -5.647018 0.000007 -0.000004 4.236798 10.121706 -2.741191 -0.520596 0.000002 -0.000002 9.874410 37.989345 -47.932423 1.916353 -0.000010 -0.000003 2.173884 3.141073 -9.633288 6.953385 2.681590 -0.377603 5.432493 -17.492565 19.059819 -39.852883 5.161503 0.000001 0.000012 68.609148 -105.624791 -15.835256 -0.000001 0.000000 -10.869105 51.273974 -13.466374 24.578569 -0.000004 -0.000005 -13.344795 -97.498013 -26.027133 8.109743 -2.381892 -1.419599 6.136595 0.905778 7.106507 -1.255412 -4.550509 0.000000 -0.000009 -1302.507239 -529.437469 -474.098785 0.000011 0.000003 -11.106507 709.138271 -6.914657 719.326181 0.000004 0.000003 -12.874296 -350.949463 12.092410 -47.845776 2.431897 0.469604 -2.489393 -310.425595 -50.156920 41.678965 -0.000000 -0.000007 -18.200203 310.602060 52.762706 21.422158 0.000004 -0.000001 -16.279898 6.174826 27.116478 -13.330350 -1.988007 -0.073497 -2.712996 -86.636797 -34.859875 -70.502640 -0.000014 -0.000006 -19.547806 -1647.036406 83.374337 -99.240613 0.000004 0.000001 -14.881199 2152.810931 34.759089 -342.977293
38.557205 -55.195690 40.914703 4251.088757 30.162286 -0.751178 -0.779999 1.005794 5.403103 -29.175501 -15.899203 -4.944212 0.000013 0.000000 4.236799 10.139300 -2.721888 -0.505283 0.000007 0.000008 9.874393 37.219214 -45.190140 0.102918 0.000007 -0.000001 2.173895 3.700290 -9.260099 7.003959 2.681603 -0.377596 5.432486 -18.974964 19.876475 -37.647275 5.161502 -0.000000 0.000004 88.507353 -101.759068 6.328937 0.000017 0.000006 -10.869101 54.990925 -13.194028 24.010270 -0.000001 0.000000 -13.344790 -95.727888 -25.935352 7.514674 -2.381889 -1.419594 6.136586 1.441572 7.825204 0.410096 -4.550499 0.000002 0.000000 -1305.433183 -524.153416 -471.783460 0.000002 -0.000004 -11.106503 708.956588 -7.835480 718.683925 0.000011 0.000000 -12.874298 -344.950399 10.356729 -43.749472 2.431903 0.469598 -2.489395 -307.205762 -51.064905 44.577889 0.000005 -0.000003 -18.200199 306.770898 53.765224 24.493048 -0.000001 0.000002 -16.279900 7.364475 26.517110 -12.923314 -1.987999 -0.073504 -2.712996 -87.721001 -34.859353 -74.024019 -0.000009 -0.000009 -19.547798 -1650.769296 84.441458 -95.442584 0.000003 0.000002 -14.881202 2152.366149 35.368164 -343.063463
38.594700 -55.188091 40.650303 4250.065868 31.401037 -0.419873 -0.780000 1.005796 5.403094 -30.614841 -16.122021 -4.622350 0.000002 0.000003 4.236800 10.043572 -2.788008 -0.500869 0.000000 -0.000004 9.874406 38.048405 -42.031625 -0.745411 -0.000005 -0.000004 2.173900 3.933018 -8.467268 7.022094 2.681596 -0.377600 5.432499 -18.532188 21.413785 -35.063452 5.161510 0.000010 0.000004 105.215130 -100.405686 25.758486 0.000008 0.000008 -10.869097 56.187281 -13.144558 22.718753 0.000008 0.000000 -13.344793 -92.697183 -25.671695 7.721202 -2.381901 -1.419599 6.136595 1.765873 8.477413 1.860720 -4.550503 -0.000004 -0.000011 -1305.896106 -521.717989 -469.202468 0.000001 -0.000004 -11.106503 704.882462 -8.126148 718.294877 0.000008 0.000009 -12.874295 -339.412208 9.171790 -36.292118 2.431895 0.469597 -2.489401 -303.375310 -52.182434 47.994407 0.000009 -0.000010 -18.200195 301.803274 54.569031 28.498493 0.000005 0.000003 -16.279896 8.910948 25.906347 -12.162760 -1.988004 -0.073499 -2.713002 -88.573401 -34.759683 -77.466476 -0.000005 -0.000009 -19.547792 -1657.366057 85.155049 -88.694439 0.000003 -0.000000 -14.881199 2151.686190 36.021851 -342.925439
38.635899 -55.179398 40.380802 4248.813484 32.848770 0.046299 -0.779997 1.005797 5.403097 -31.755892 -16.478079 -4.486144 0.000005 0.000006 4.236790 9.878851 -2.917328 -0.498494 0.000007 -0.000002 9.874396 38.888751 -38.852568 -1.141244 -0.000008 0.000008 2.173902 3.987262 -7.480766 7.014556 2.681602 -0.377603 5.432494 -20.506525 20.481002 -31.446369 5.161509 -0.000011 0.000003 134.927983 -102.314772 57.347259 0.000018 0.000011 -10.869102 56.548997 -12.754788 21.188997 0.000003 -0.000003 -13.344804 -89.792276 -25.125566 8.041136 -2.381900 -1.419600 6.136595 1.680376 8.424601 3.203436 -4.550504 0.000008 0.000002 -1305.265871 -519.450858 -466.059652 0.000007 0.000003 -11.106505 699.507759 -8.159524 717.739828 -0.000016 -0.000004 -12.874290 -332.233870 7.778112 -27.056638 2.431908 0.469601 -2.489391 -299.033386 -53.390462 51.918081 0.000004 -0.000001 -18.200199 296.895291 55.249042 32.660640 -0.000003 -0.000008 -16.279900 10.286326 25.207733 -10.962436 -1.987999 -0.073500 -2.712999 -89.256687 -34.597555 -80.815905 -0.000006 0.000001 -19.547796 -1669.296047 86.338290 -76.730154 -0.000000 0.000001 -14.881199 2151.877435 36.952567 -342.676191
